# xmcd
#
# Track frame offsets:
#   150
#   17925
#   39375
#   61150
#   81300
#   107325
#   122950
#   137325
#   154675
#   178750
#   195837
#   222600
#   238575
#
# Disc length: 3562 seconds
#
# Revision: 0
# Processed by: cddbd v1.5.1PL2 Copyright (c) Steve Scherf et al.
# Submitted via: GXTranscoder 2.24.2965
#
DISCID=aa0de80d
DTITLE=Elton John - Superstar
DYEAR=1998
DGENRE=Easy Listening
TTITLE0=Can you feel this love tonight
TTITLE1=Circle of life
TTITLE2=Belive
TTITLE3=Don`t go breaking my heart
TTITLE4=Don`t let the sun go down on me
TTITLE5=Candle in the wind
TTITLE6=Goodbye yellow brick road
TTITLE7=Island Girl
TTITLE8=Little Jeannie
TTITLE9=Crocodile Rock
TTITLE10=The one
TTITLE11=True love with Kikidee
TTITLE12=Simple Liffe
EXTD=
EXTT0=
EXTT1=
EXTT2=
EXTT3=
EXTT4=
EXTT5=
EXTT6=
EXTT7=
EXTT8=
EXTT9=
EXTT10=
EXTT11=
EXTT12=
PLAYORDER=
